<svg xmlns="http://www.w3.org/2000/svg" viewBox="0 0 1120 840" width="1120" height="840" role="presentation"><defs><pattern id="s-hero" width="160.000" height="160.000" patternUnits="userSpaceOnUse"><rect width="160.000" height="160.000" fill="#4A3A31"/><polygon points="127.20,80.00 113.38,93.82 113.38,113.38 93.82,113.38 80.00,127.20 66.18,113.38 46.62,113.38 46.62,93.82 32.80,80.00 46.62,66.18 46.62,46.62 66.18,46.62 80.00,32.80 93.82,46.62 113.38,46.62 113.38,66.18" fill="#D12240"/><polygon points="-12.48,-34.40 12.48,-34.40 12.48,-12.48 34.40,-12.48 34.40,12.48 12.48,12.48 12.48,34.40 -12.48,34.40 -12.48,12.48 -34.40,12.48 -34.40,-12.48 -12.48,-12.48" fill="#D77283"/><polygon points="147.52,-34.40 172.48,-34.40 172.48,-12.48 194.40,-12.48 194.40,12.48 172.48,12.48 172.48,34.40 147.52,34.40 147.52,12.48 125.60,12.48 125.60,-12.48 147.52,-12.48" fill="#D77283"/><polygon points="-12.48,125.60 12.48,125.60 12.48,147.52 34.40,147.52 34.40,172.48 12.48,172.48 12.48,194.40 -12.48,194.40 -12.48,172.48 -34.40,172.48 -34.40,147.52 -12.48,147.52" fill="#D77283"/><polygon points="147.52,125.60 172.48,125.60 172.48,147.52 194.40,147.52 194.40,172.48 172.48,172.48 172.48,194.40 147.52,194.40 147.52,172.48 125.60,172.48 125.60,147.52 147.52,147.52" fill="#D77283"/><polygon points="90.75,10.75 69.25,10.75 69.25,-10.75 90.75,-10.75" fill="#D9A441"/><polygon points="90.75,170.75 69.25,170.75 69.25,149.25 90.75,149.25" fill="#D9A441"/><polygon points="10.75,90.75 -10.75,90.75 -10.75,69.25 10.75,69.25" fill="#D9A441"/><polygon points="170.75,90.75 149.25,90.75 149.25,69.25 170.75,69.25" fill="#D9A441"/><polygon points="127.20,80.00 113.38,93.82 113.38,113.38 93.82,113.38 80.00,127.20 66.18,113.38 46.62,113.38 46.62,93.82 32.80,80.00 46.62,66.18 46.62,46.62 66.18,46.62 80.00,32.80 93.82,46.62 113.38,46.62 113.38,66.18" fill="none" stroke="#2D2320" stroke-width="15.20" stroke-linejoin="round"/><polygon points="-12.48,-34.40 12.48,-34.40 12.48,-12.48 34.40,-12.48 34.40,12.48 12.48,12.48 12.48,34.40 -12.48,34.40 -12.48,12.48 -34.40,12.48 -34.40,-12.48 -12.48,-12.48" fill="none" stroke="#2D2320" stroke-width="15.20" stroke-linejoin="round"/><polygon points="147.52,-34.40 172.48,-34.40 172.48,-12.48 194.40,-12.48 194.40,12.48 172.48,12.48 172.48,34.40 147.52,34.40 147.52,12.48 125.60,12.48 125.60,-12.48 147.52,-12.48" fill="none" stroke="#2D2320" stroke-width="15.20" stroke-linejoin="round"/><polygon points="-12.48,125.60 12.48,125.60 12.48,147.52 34.40,147.52 34.40,172.48 12.48,172.48 12.48,194.40 -12.48,194.40 -12.48,172.48 -34.40,172.48 -34.40,147.52 -12.48,147.52" fill="none" stroke="#2D2320" stroke-width="15.20" stroke-linejoin="round"/><polygon points="147.52,125.60 172.48,125.60 172.48,147.52 194.40,147.52 194.40,172.48 172.48,172.48 172.48,194.40 147.52,194.40 147.52,172.48 125.60,172.48 125.60,147.52 147.52,147.52" fill="none" stroke="#2D2320" stroke-width="15.20" stroke-linejoin="round"/><polygon points="90.75,10.75 69.25,10.75 69.25,-10.75 90.75,-10.75" fill="none" stroke="#2D2320" stroke-width="15.20" stroke-linejoin="round"/><polygon points="90.75,170.75 69.25,170.75 69.25,149.25 90.75,149.25" fill="none" stroke="#2D2320" stroke-width="15.20" stroke-linejoin="round"/><polygon points="10.75,90.75 -10.75,90.75 -10.75,69.25 10.75,69.25" fill="none" stroke="#2D2320" stroke-width="15.20" stroke-linejoin="round"/><polygon points="170.75,90.75 149.25,90.75 149.25,69.25 170.75,69.25" fill="none" stroke="#2D2320" stroke-width="15.20" stroke-linejoin="round"/></pattern></defs><rect width="1120" height="840" fill="url(#s-hero)"/></svg>