<svg xmlns="http://www.w3.org/2000/svg" viewBox="0 0 720 480" width="720" height="480" role="presentation"><defs><pattern id="s-zumrud" width="120.000" height="120.000" patternUnits="userSpaceOnUse"><rect width="120.000" height="120.000" fill="#4A3A31"/><polygon points="59.40,30.00 44.70,55.46 15.30,55.46 0.60,30.00 15.30,4.54 44.70,4.54" fill="#177857"/><polygon points="119.40,90.00 104.70,115.46 75.30,115.46 60.60,90.00 75.30,64.54 104.70,64.54" fill="#2B9F77"/><polygon points="119.40,30.00 104.70,55.46 75.30,55.46 60.60,30.00 75.30,4.54 104.70,4.54" fill="#48C49A"/><polygon points="59.40,90.00 44.70,115.46 15.30,115.46 0.60,90.00 15.30,64.54 44.70,64.54" fill="#48C49A"/><polygon points="60.00,12.00 49.61,-6.00 70.39,-6.00" fill="#D9A441"/><polygon points="60.00,132.00 49.61,114.00 70.39,114.00" fill="#D9A441"/><polygon points="0.00,72.00 -10.39,54.00 10.39,54.00" fill="#D9A441"/><polygon points="120.00,72.00 109.61,54.00 130.39,54.00" fill="#D9A441"/><polygon points="8.91,8.91 -8.91,8.91 -8.91,-8.91 8.91,-8.91" fill="#D9A441"/><polygon points="128.91,8.91 111.09,8.91 111.09,-8.91 128.91,-8.91" fill="#D9A441"/><polygon points="8.91,128.91 -8.91,128.91 -8.91,111.09 8.91,111.09" fill="#D9A441"/><polygon points="128.91,128.91 111.09,128.91 111.09,111.09 128.91,111.09" fill="#D9A441"/><polygon points="59.40,30.00 44.70,55.46 15.30,55.46 0.60,30.00 15.30,4.54 44.70,4.54" fill="none" stroke="#2D2320" stroke-width="11.40" stroke-linejoin="round"/><polygon points="119.40,90.00 104.70,115.46 75.30,115.46 60.60,90.00 75.30,64.54 104.70,64.54" fill="none" stroke="#2D2320" stroke-width="11.40" stroke-linejoin="round"/><polygon points="119.40,30.00 104.70,55.46 75.30,55.46 60.60,30.00 75.30,4.54 104.70,4.54" fill="none" stroke="#2D2320" stroke-width="11.40" stroke-linejoin="round"/><polygon points="59.40,90.00 44.70,115.46 15.30,115.46 0.60,90.00 15.30,64.54 44.70,64.54" fill="none" stroke="#2D2320" stroke-width="11.40" stroke-linejoin="round"/><polygon points="60.00,12.00 49.61,-6.00 70.39,-6.00" fill="none" stroke="#2D2320" stroke-width="11.40" stroke-linejoin="round"/><polygon points="60.00,132.00 49.61,114.00 70.39,114.00" fill="none" stroke="#2D2320" stroke-width="11.40" stroke-linejoin="round"/><polygon points="0.00,72.00 -10.39,54.00 10.39,54.00" fill="none" stroke="#2D2320" stroke-width="11.40" stroke-linejoin="round"/><polygon points="120.00,72.00 109.61,54.00 130.39,54.00" fill="none" stroke="#2D2320" stroke-width="11.40" stroke-linejoin="round"/><polygon points="8.91,8.91 -8.91,8.91 -8.91,-8.91 8.91,-8.91" fill="none" stroke="#2D2320" stroke-width="11.40" stroke-linejoin="round"/><polygon points="128.91,8.91 111.09,8.91 111.09,-8.91 128.91,-8.91" fill="none" stroke="#2D2320" stroke-width="11.40" stroke-linejoin="round"/><polygon points="8.91,128.91 -8.91,128.91 -8.91,111.09 8.91,111.09" fill="none" stroke="#2D2320" stroke-width="11.40" stroke-linejoin="round"/><polygon points="128.91,128.91 111.09,128.91 111.09,111.09 128.91,111.09" fill="none" stroke="#2D2320" stroke-width="11.40" stroke-linejoin="round"/></pattern></defs><rect width="720" height="480" fill="url(#s-zumrud)"/><rect x="11.4" y="11.4" width="697.2" height="457.2" fill="none" stroke="#2D2320" stroke-width="22.8"/></svg>